<?xml version="1.0" standalone="no"?><!DOCTYPE svg PUBLIC "-//W3C//DTD SVG 1.1//EN" "http://www.w3.org/Graphics/SVG/1.1/DTD/svg11.dtd"><svg t="1729583689781" class="icon" viewBox="0 0 1561 1024" version="1.1" xmlns="http://www.w3.org/2000/svg" p-id="12120" xmlns:xlink="http://www.w3.org/1999/xlink" width="304.8828125" height="200"><path d="M643.072 239.762286h274.236952v66.852571h-274.236952V239.762286z" fill="#FF6A00" p-id="12121"></path><path d="M1054.427429 0.097524h-180.224l44.373333 66.852571 130.681905 44.617143c23.454476 8.338286 39.15581 33.450667 39.155809 58.514286V381.805714c0 25.063619-15.701333 50.176-39.204571 58.514286l-130.584381 44.568381-44.373334 66.901333h180.175239c75.776 0 135.850667-64.121905 135.850666-144.920381V147.797333c0-80.847238-60.074667-147.69981-135.850666-147.699809z m-543.256381 440.32c-23.503238-8.387048-39.204571-33.499429-39.204572-58.514286V170.032762c0-25.063619 15.701333-50.176 39.204572-58.514286l130.584381-44.568381 44.373333-66.901333h-180.175238C430.177524 0.097524 370.102857 66.998857 370.102857 147.797333v256.341334c0 80.847238 60.074667 144.920381 135.850667 144.920381h180.224l-44.422095-66.901334-130.584381-41.788952z" fill="#FF6A00" p-id="12122"></path><path d="M0 731.721143h36.766476l45.202286 121.807238h1.560381l45.202286-121.807238h36.278857v189.098667h-22.966857v-164.32762H140.434286l-45.446096 121.563429h-25.063619l-45.982476-121.563429h-1.462857v164.32762H0v-189.098667zM266.386286 770.925714c10.922667 0 19.894857 1.170286 26.965333 3.413334 7.070476 2.29181 12.678095 5.412571 16.871619 9.411047 4.144762 3.998476 7.070476 8.825905 8.679619 14.433524 1.609143 5.656381 2.438095 11.702857 2.438095 18.285714v104.350477h-18.675809l-3.31581-22.332953a37.059048 37.059048 0 0 1-8.143238 10.630095c-3.413333 3.072-7.314286 5.705143-11.654095 7.899429-4.33981 2.145524-9.069714 3.803429-14.140952 4.87619-5.12 1.121524-10.24 1.657905-15.36 1.657905-16.481524 0-28.574476-3.85219-36.08381-11.459047-7.606857-7.606857-11.410286-18.432-11.410286-32.426667 0-8.728381 1.316571-16.091429 3.949715-22.089143a35.888762 35.888762 0 0 1 11.117714-14.433524 46.08 46.08 0 0 1 17.261714-7.899428c6.729143-1.609143 14.140952-2.438095 22.332953-2.438096h42.130285v-12.239238c0-4.388571-0.487619-8.43581-1.414095-12.141714a21.357714 21.357714 0 0 0-5.071238-9.508571 24.137143 24.137143 0 0 0-10.337524-6.144 55.978667 55.978667 0 0 0-17.115428-2.194286 146.773333 146.773333 0 0 0-30.427429 3.267048v-20.72381a212.114286 212.114286 0 0 1 31.402667-2.145524z m-14.287238 133.022476c11.556571 0 21.455238-2.535619 29.647238-7.509333a42.422857 42.422857 0 0 0 17.603047-20.577524v-24.234666h-40.618666c-5.607619 0-10.532571 0.341333-14.823619 1.072762a23.30819 23.30819 0 0 0-10.435048 4.242285 18.773333 18.773333 0 0 0-6.144 8.582096 40.082286 40.082286 0 0 0-2.048 13.897142c0 8.192 2.048 14.287238 6.144 18.383238 4.096 4.096 10.971429 6.144 20.675048 6.144zM395.946667 845.921524l-44.763429-72.216381h24.527238l34.767238 58.026667h1.511619l34.230857-58.026667h24.283429l-44.470857 71.68 47.006476 75.434667h-25.014857l-36.278857-60.757334h-1.511619l-37.302857 60.757334h-24.527238l47.494095-74.947048zM575.73181 923.550476c-12.288 0-23.356952-1.365333-33.206858-4.096a55.929905 55.929905 0 0 1-25.404952-14.823619 70.704762 70.704762 0 0 1-16.335238-29.744762c-3.85219-12.580571-5.753905-28.769524-5.753905-48.615619 0-18.139429 1.950476-33.450667 5.851429-45.933714 3.900952-12.434286 9.45981-22.430476 16.579047-30.086095 7.168-7.655619 15.896381-13.06819 26.185143-16.335238 10.337524-3.31581 21.845333-4.924952 34.620953-4.924953 8.192 0 15.262476 0.487619 21.308952 1.365334 6.046476 0.877714 11.702857 2.243048 17.017905 4.096v22.625523a95.670857 95.670857 0 0 0-16.871619-4.778666 111.469714 111.469714 0 0 0-20.967619-1.804191c-10.044952 0-18.822095 1.26781-26.282667 3.852191a41.008762 41.008762 0 0 0-18.627048 12.678095c-4.973714 5.851429-8.679619 13.604571-11.117714 23.113143-2.438095 9.557333-3.705905 21.455238-3.705905 35.59619 0 15.11619 1.121524 27.452952 3.413334 37.205334 2.340571 9.703619 5.851429 17.408 10.483809 23.161904 4.681143 5.705143 10.678857 9.703619 17.895619 11.995429 7.216762 2.243048 15.798857 3.413333 25.648762 3.413333 8.338286 0 15.750095-0.633905 22.235429-1.80419s13.116952-3.023238 19.943619-5.558857v21.26019a82.651429 82.651429 0 0 1-18.383238 5.851429c-7.314286 1.511619-15.506286 2.29181-24.527238 2.291809zM708.510476 923.550476c-10.191238 0-19.260952-1.219048-27.160381-3.657143a44.860952 44.860952 0 0 1-20.041143-12.531809 57.539048 57.539048 0 0 1-12.434285-23.454476c-2.779429-9.752381-4.193524-21.942857-4.193524-36.668953s1.414095-26.916571 4.193524-36.62019c2.82819-9.752381 6.972952-17.554286 12.434285-23.405715a44.763429 44.763429 0 0 1 19.992381-12.580571 91.672381 91.672381 0 0 1 27.257905-3.657143c10.24 0 19.260952 1.219048 27.209143 3.657143a43.885714 43.885714 0 0 1 19.894857 12.53181 58.514286 58.514286 0 0 1 12.288 23.405714c2.779429 9.752381 4.193524 21.942857 4.193524 36.668952s-1.414095 26.965333-4.193524 36.668953c-2.82819 9.752381-6.92419 17.554286-12.288 23.405714a44.032 44.032 0 0 1-19.894857 12.580571c-7.94819 2.438095-17.017905 3.657143-27.209143 3.657143z m0-19.894857c7.850667 0 14.384762-0.877714 19.602286-2.730667a24.673524 24.673524 0 0 0 12.385524-9.264762 43.300571 43.300571 0 0 0 6.485333-17.408 159.451429 159.451429 0 0 0 1.950476-27.014095c0-10.727619-0.682667-19.69981-2.048-26.965333a43.544381 43.544381 0 0 0-6.826666-17.456762 26.282667 26.282667 0 0 0-12.483048-9.362286 55.491048 55.491048 0 0 0-19.017143-2.925714c-7.655619 0-14.140952 0.975238-19.309714 2.925714a26.185143 26.185143 0 0 0-12.483048 9.362286 41.886476 41.886476 0 0 0-6.631619 17.456762c-1.316571 7.314286-1.950476 16.286476-1.950476 26.965333 0 10.727619 0.682667 19.748571 2.048 27.014095a41.886476 41.886476 0 0 0 6.92419 17.408c3.218286 4.388571 7.41181 7.460571 12.483048 9.264762 5.12 1.852952 11.410286 2.730667 18.919619 2.730667zM955.538286 770.925714c7.996952 0 14.872381 1.219048 20.577524 3.559619a36.473905 36.473905 0 0 1 14.043428 9.947429c3.657143 4.291048 6.339048 9.362286 8.045714 15.262476s2.535619 12.434286 2.535619 19.504762v101.61981h-21.942857v-93.135239c0-11.50781-1.852952-20.284952-5.510095-26.477714-3.657143-6.192762-10.727619-9.264762-21.065143-9.264762-4.096 0-7.94819 0.390095-11.654095 1.072762a28.672 28.672 0 0 0-18.285714 11.849143 43.056762 43.056762 0 0 0-5.851429 12.970667v102.985143h-21.942857v-93.135239c0-11.312762-1.706667-20.089905-5.12-26.331428-3.413333-6.290286-10.142476-9.411048-20.187429-9.411048-4.242286 0-8.289524 0.292571-11.995428 0.975238a27.794286 27.794286 0 0 0-10.24 3.803429 27.355429 27.355429 0 0 0-8.143238 8.192c-2.389333 3.510857-4.388571 8.094476-6.144 13.750857v102.156191h-21.942857v-147.114667h21.942857v19.358476c4.291048-8.777143 9.898667-14.628571 16.871619-17.554286 6.972952-3.023238 14.628571-4.534857 23.015619-4.534857 10.873905 0 19.553524 2.145524 26.038857 6.38781a36.230095 36.230095 0 0 1 14.043429 17.554285 36.376381 36.376381 0 0 1 18.285714-19.017142 46.226286 46.226286 0 0 1 11.995428-3.803429c4.144762-0.78019 8.387048-1.121524 12.629334-1.121524zM1112.649143 770.925714a63.390476 63.390476 0 0 1 28.476952 5.607619c7.363048 3.754667 13.165714 8.97219 17.359238 15.701334 4.144762 6.680381 7.070476 14.726095 8.679619 24.088381s2.438095 19.69981 2.438096 30.915047c0 10.24-0.828952 19.894857-2.438096 29.062095a70.997333 70.997333 0 0 1-8.679619 24.234667 46.128762 46.128762 0 0 1-17.359238 16.774095 57.636571 57.636571 0 0 1-28.476952 6.241524c-13.458286 0-23.552-2.535619-30.232381-7.606857a41.593905 41.593905 0 0 1-14.482286-20.723809v80.115809h-21.942857v-201.679238h21.942857v26.428952a43.739429 43.739429 0 0 1 14.57981-21.113904c6.777905-5.36381 16.822857-7.996952 30.134857-7.996953z m-2.828191 132.729905a35.206095 35.206095 0 0 0 19.504762-4.778667 30.915048 30.915048 0 0 0 11.117715-12.678095c2.584381-5.217524 4.242286-11.264 5.022476-18.090667a187.733333 187.733333 0 0 0-0.146286-42.812952 56.56381 56.56381 0 0 0-5.12-17.944381 29.354667 29.354667 0 0 0-11.117714-12.288 36.327619 36.327619 0 0 0-19.260953-4.486095 47.591619 47.591619 0 0 0-20.675047 3.900952 32.816762 32.816762 0 0 0-13.165715 11.361524 47.786667 47.786667 0 0 0-7.021714 17.846857 124.050286 124.050286 0 0 0-2.048 23.552c0 8.533333 0.682667 16.286476 2.048 23.161905a47.786667 47.786667 0 0 0 7.021714 17.749333c3.31581 4.87619 7.704381 8.679619 13.165715 11.410286a46.031238 46.031238 0 0 0 20.675047 4.096zM1318.229333 773.705143v147.114667h-18.627047l-2.828191-21.260191a35.05981 35.05981 0 0 1-18.529524 19.260952c-3.803429 1.706667-7.850667 2.925714-12.092952 3.657143a75.776 75.776 0 0 1-12.775619 1.072762c-9.020952 0-16.530286-1.170286-22.479238-3.559619a34.718476 34.718476 0 0 1-14.189714-9.752381 36.815238 36.815238 0 0 1-7.41181-15.11619 81.968762 81.968762 0 0 1-2.145524-19.504762v-101.912381h21.942857v93.135238c0 5.656381 0.341333 10.727619 1.024 15.11619a29.110857 29.110857 0 0 0 3.949715 11.361524c1.950476 3.072 4.681143 5.412571 8.192 7.070476a31.695238 31.695238 0 0 0 13.409524 2.438096c4.242286 0 8.43581-0.292571 12.483047-0.975238a31.402667 31.402667 0 0 0 20.821333-12.921905c2.82819-3.803429 5.266286-8.874667 7.314286-15.262476v-99.961905h21.942857zM1407.658667 902.826667a70.753524 70.753524 0 0 0 15.067428-1.609143v19.894857l-7.655619 0.975238a88.746667 88.746667 0 0 1-27.209143-1.365333 24.81981 24.81981 0 0 1-12.775619-6.972953 30.183619 30.183619 0 0 1-7.168-14.287238 105.423238 105.423238 0 0 1-2.145524-23.600762V793.35619h-20.48v-19.602285h20.48v-34.913524h21.942858v34.913524h34.230857v19.602285h-34.230857v81.237334c0 5.802667 0.24381 10.532571 0.78019 14.140952 0.487619 3.608381 1.462857 6.485333 2.925714 8.582095 1.462857 2.096762 3.413333 3.559619 5.997715 4.388572a34.620952 34.620952 0 0 0 10.24 1.170286zM1560.380952 832.512c0 2.048-0.146286 4.534857-0.390095 7.509333l-0.877714 9.703619-93.525333 6.241524c0 7.996952 0.78019 14.969905 2.340571 20.870095 1.511619 5.851429 3.998476 10.727619 7.363048 14.57981 3.413333 3.803429 7.94819 6.680381 13.555809 8.582095 5.607619 1.901714 12.580571 2.82819 20.967619 2.828191a103.862857 103.862857 0 0 0 43.154286-9.508572v21.504a55.637333 55.637333 0 0 1-7.899429 3.267048 89.575619 89.575619 0 0 1-11.02019 2.876952 132.87619 132.87619 0 0 1-27.550476 2.584381c-10.24 0-19.309714-1.219048-27.209143-3.705905a44.714667 44.714667 0 0 1-20.089905-12.531809 57.344 57.344 0 0 1-12.385524-23.405714 134.095238 134.095238 0 0 1-4.193524-36.668953c0-14.726095 1.414095-26.916571 4.193524-36.668952 2.82819-9.703619 6.92419-17.554286 12.288-23.405714a44.032 44.032 0 0 1 19.651048-12.53181c7.753143-2.438095 16.579048-3.705905 26.428952-3.705905 11.751619 0 21.26019 1.852952 28.476953 5.607619a43.349333 43.349333 0 0 1 16.725333 14.433524c3.900952 5.90019 6.582857 12.53181 7.94819 19.894857 1.365333 7.363048 2.048 14.628571 2.048 21.650286z m-21.699047 0.292571c0-5.607619-0.341333-11.02019-1.024-16.188952a35.644952 35.644952 0 0 0-4.486095-13.653333 24.185905 24.185905 0 0 0-10.093715-9.264762 39.497143 39.497143 0 0 0-17.846857-3.413334c-8.045714 0-14.531048 1.121524-19.553524 3.31581a27.306667 27.306667 0 0 0-11.897904 9.508571 40.17981 40.17981 0 0 0-6.144 15.262477c-1.170286 5.997714-1.852952 12.726857-1.999239 20.187428l73.045334-5.753905z" fill="#333333" p-id="12123"></path></svg>
